# xmcd CD database file
#
# Track frame offsets:
#	150
#	14910
#	25350
#	43615
#	60682
#	76750
#	104587
#	118015
#	134045
#	147872
#	173740
#	185445
#	198007
#	211827
#
# Disc length: 3015 seconds
#
# Revision: 5
# Processed by: cddbd v1.5.2PL0 Copyright (c) Steve Scherf et al.
# Submitted via: CDex 1.51
#
DISCID=c80bc50e
DTITLE=John Mooney - Testimony
DYEAR=1992
DGENRE=Blues
TTITLE0=I Plead Guilty
TTITLE1=One Thing
TTITLE2=Lil' Queen o' Spades
TTITLE3=Push and Shove
TTITLE4=In the Night
TTITLE5=Take Time to Know Her
TTITLE6=I Wish I Was In Heaven Sittin' Down
TTITLE7=Cryin' Out Loud
TTITLE8=Maybe Baby
TTITLE9=Levee Camp Moan
TTITLE10=Common Ground
TTITLE11=Married Woman Blues
TTITLE12=Man's Gotta Do
TTITLE13=Hey Now Baby
EXTD=YEAR: 1992
EXTT0=
EXTT1=
EXTT2=
EXTT3=
EXTT4=
EXTT5=
EXTT6=
EXTT7=
EXTT8=
EXTT9=
EXTT10=
EXTT11=
EXTT12=
EXTT13=
PLAYORDER=
